<svg xmlns="http://www.w3.org/2000/svg" xmlns:xlink="http://www.w3.org/1999/xlink" width="168" height="45" viewBox="0 0 168 45">
  <defs>
    <clipPath id="clip-path">
      <rect id="Retângulo_125" data-name="Retângulo 125" width="168" height="45" transform="translate(1214 809)" fill="#fff"/>
    </clipPath>
  </defs>
  <g id="Grupo_841" data-name="Grupo 841" transform="translate(-1214 -809)" clip-path="url(#clip-path)">
    <path id="Caminho_167" data-name="Caminho 167" d="M1214.73,852.146H1214v-6.569h.73Zm1.26-4.576h.63v.626a1.4,1.4,0,0,1,1.26-.755,1.491,1.491,0,0,1,.66.143c.45.214.69.755.73,1.622v2.94h-.67V849.4c0-.661-.17-1.077-.49-1.24a.92.92,0,0,0-.41-.093c-.68-.006-1.03.438-1.03,1.333v2.742h-.68Zm4.92,3.2q.06.885.81.879c.56-.006.84-.257.85-.748a.519.519,0,0,0-.28-.5,3.167,3.167,0,0,0-.39-.163c-.24-.078-.47-.159-.7-.238a1.369,1.369,0,0,1-.65-.394,1.318,1.318,0,0,1-.23-.808,1.359,1.359,0,0,1,.19-.725,1.184,1.184,0,0,1,.48-.462,1.678,1.678,0,0,1,.74-.168,1.609,1.609,0,0,1,1,.273,1.032,1.032,0,0,1,.35.456,2.077,2.077,0,0,1,.1.632h-.7c-.03-.488-.27-.731-.7-.731a.965.965,0,0,0-.5.125.552.552,0,0,0-.26.506.5.5,0,0,0,.29.508c.19.081.48.182.86.3a3.227,3.227,0,0,1,.49.2,1.151,1.151,0,0,1,.61,1.1,1.362,1.362,0,0,1-1.49,1.463,1.521,1.521,0,0,1-1.27-.471,1.807,1.807,0,0,1-.3-1.038Zm2.95-3.2h.75v-.856l.67-.351v1.207h.92v.616h-.92v2.768l.01.292.03.155c.04.167.17.252.39.245a2.281,2.281,0,0,0,.49-.071v.629a4.135,4.135,0,0,1-.68.072.816.816,0,0,1-.91-.875v-3.215h-.75Zm3.94,4.576h-.67V847.57h.67Zm.04-5.7h-.74v-.875h.74Zm.75,1.127h.75v-.856l.67-.351v1.207h.92v.616h-.92v2.768l.01.292.03.155c.04.167.17.252.39.245a2.283,2.283,0,0,0,.49-.071v.629a4.033,4.033,0,0,1-.68.072.816.816,0,0,1-.91-.875v-3.215h-.75Zm3.88,0v2.623a2.628,2.628,0,0,0,.09.851.752.752,0,0,0,.83.6.924.924,0,0,0,.8-.4,1.925,1.925,0,0,0,.21-1.056V847.57h.67v4.576h-.63v-.632a1.347,1.347,0,0,1-1.24.762,1.244,1.244,0,0,1-1.14-.577,3.141,3.141,0,0,1-.27-1.528v-2.6Zm3.38,0h.75v-.856l.67-.351v1.207h.92v.616h-.92v2.768l.01.292.03.155c.04.167.17.252.39.245a2.281,2.281,0,0,0,.49-.071v.629a4.134,4.134,0,0,1-.68.072.816.816,0,0,1-.91-.875v-3.215h-.75Zm2.94,2.278a3.358,3.358,0,0,1,.23-1.314,1.6,1.6,0,0,1,1.56-1.093,1.776,1.776,0,0,1,.75.168,1.683,1.683,0,0,1,.83,1.056,3.688,3.688,0,0,1,.18,1.18,3.559,3.559,0,0,1-.23,1.338,1.7,1.7,0,0,1-.8.917,1.762,1.762,0,0,1-.77.176,1.509,1.509,0,0,1-1.32-.7A3.07,3.07,0,0,1,1238.79,849.848Zm.7.044a3.222,3.222,0,0,0,.13.966.935.935,0,0,0,.94.788.884.884,0,0,0,.85-.582,2.916,2.916,0,0,0,.23-1.238,3.372,3.372,0,0,0-.14-.977.934.934,0,0,0-.92-.778.97.97,0,0,0-.86.585A2.78,2.78,0,0,0,1239.49,849.892Zm6.58-4.315h1.77a4.123,4.123,0,0,1,.6.041,1.384,1.384,0,0,1,.89.493,1.709,1.709,0,0,1,.37,1.118,1.761,1.761,0,0,1-.18.82,1.208,1.208,0,0,1-.51.548,1.577,1.577,0,0,1-.26.078,1.557,1.557,0,0,1,1.15,1.705,1.715,1.715,0,0,1-.67,1.486,1.429,1.429,0,0,1-.68.256c-.13.012-.37.021-.71.024h-1.77Zm.72,5.809h1.07a1.722,1.722,0,0,0,.9-.166,1.092,1.092,0,0,0,.41-.968c-.01-.761-.44-1.146-1.31-1.152h-1.07Zm0-3.047h1.08q1.125-.009,1.11-.993c0-.669-.37-1-1.11-1.01h-1.08Zm3.99-.769h.67v.5l.15-.2a1.068,1.068,0,0,1,.36-.3,1.131,1.131,0,0,1,.5-.121h.2v.779l-.23-.021a.847.847,0,0,0-.82.544,3.093,3.093,0,0,0-.16,1.187v2.216h-.67Zm2.64,1.207a2.1,2.1,0,0,1,.11-.619.939.939,0,0,1,.35-.454,1.708,1.708,0,0,1,.99-.263,1.618,1.618,0,0,1,1.04.292,1.435,1.435,0,0,1,.44,1.17v2.135l.01.46a3.713,3.713,0,0,0,.04.443l.05.205h-.65a2.435,2.435,0,0,1-.1-.629l-.06.1a1.03,1.03,0,0,1-.23.3,1.192,1.192,0,0,1-.87.351,1.435,1.435,0,0,1-.66-.16.9.9,0,0,1-.36-.3.982.982,0,0,1-.2-.388,1.756,1.756,0,0,1-.09-.567,1.577,1.577,0,0,1,.08-.534,1.428,1.428,0,0,1,.25-.472,1.088,1.088,0,0,1,.42-.356,2.937,2.937,0,0,1,1.19-.223h.5a2.025,2.025,0,0,0-.11-.9.72.72,0,0,0-.68-.3.842.842,0,0,0-.52.141.741.741,0,0,0-.24.565Zm2.25,1.118h-.43a2.34,2.34,0,0,0-.84.136.777.777,0,0,0-.47.8.794.794,0,0,0,.23.613.756.756,0,0,0,.54.2.814.814,0,0,0,.87-.689A4.4,4.4,0,0,0,1255.67,849.9Zm2.31.872q.06.885.81.879c.56-.006.84-.257.85-.748a.528.528,0,0,0-.27-.5,4.173,4.173,0,0,0-.4-.163c-.24-.078-.47-.159-.71-.238a1.381,1.381,0,0,1-.64-.394,1.318,1.318,0,0,1-.23-.808,1.359,1.359,0,0,1,.19-.725,1.183,1.183,0,0,1,.48-.462,1.678,1.678,0,0,1,.74-.168,1.609,1.609,0,0,1,1,.273,1.033,1.033,0,0,1,.35.456,2.082,2.082,0,0,1,.1.632h-.7c-.03-.488-.27-.731-.7-.731a.965.965,0,0,0-.5.125.552.552,0,0,0-.26.506.5.5,0,0,0,.29.508c.19.081.48.182.86.3a3.222,3.222,0,0,1,.49.2,1.151,1.151,0,0,1,.61,1.1,1.362,1.362,0,0,1-1.49,1.463,1.521,1.521,0,0,1-1.27-.471,1.808,1.808,0,0,1-.3-1.038Zm4.04,1.379h-.68V847.57h.68Zm.03-5.7h-.74v-.875h.74Zm1.15-.875h.67v6.578h-.67Zm2.38,4.407a4.8,4.8,0,0,0,.11.913,1.01,1.01,0,0,0,.49.661.789.789,0,0,0,.4.1c.51-.006.8-.329.87-.962h.7a2.309,2.309,0,0,1-.24.875,1.374,1.374,0,0,1-.59.557,1.616,1.616,0,0,1-.73.16,1.436,1.436,0,0,1-1.29-.652,3.026,3.026,0,0,1-.42-1.694,4.22,4.22,0,0,1,.19-1.333,1.631,1.631,0,0,1,.61-.874,1.412,1.412,0,0,1,.9-.282q1.485.014,1.59,1.882l.01.652Zm0-.615h1.91a1.964,1.964,0,0,0-.2-.942.823.823,0,0,0-.72-.347q-.75,0-.93.92Zm4.3,2.786h-.67V847.57h.67Zm.04-5.7h-.74v-.875h.74Zm1.14,1.127h.67v.5l.15-.2a1.068,1.068,0,0,1,.36-.3,1.131,1.131,0,0,1,.5-.121h.2v.779l-.23-.021a.847.847,0,0,0-.82.544,3.093,3.093,0,0,0-.16,1.187v2.216h-.67Zm2.41,2.278a3.553,3.553,0,0,1,.23-1.314,1.685,1.685,0,0,1,.78-.914,1.731,1.731,0,0,1,.79-.179,1.776,1.776,0,0,1,.75.168,1.682,1.682,0,0,1,.83,1.056,3.688,3.688,0,0,1,.18,1.18,3.366,3.366,0,0,1-.24,1.338,1.664,1.664,0,0,1-.8.917,1.7,1.7,0,0,1-.77.176,1.492,1.492,0,0,1-1.31-.7A3.067,3.067,0,0,1,1273.47,849.848Zm.71.044a2.936,2.936,0,0,0,.12.966.944.944,0,0,0,.95.788.88.88,0,0,0,.84-.582,2.762,2.762,0,0,0,.24-1.238,3.748,3.748,0,0,0-.14-.977.934.934,0,0,0-.92-.778.948.948,0,0,0-.86.585A2.647,2.647,0,0,0,1274.18,849.892Zm8.99-4.324h.67v6.578h-.67v-.593a1.229,1.229,0,0,1-1.15.723,1.177,1.177,0,0,1-.61-.152,2.3,2.3,0,0,1-.97-2.248,3.26,3.26,0,0,1,.37-1.677,1.4,1.4,0,0,1,1.23-.758,1.179,1.179,0,0,1,.98.491l.15.22Zm-2.03,4.362a2.561,2.561,0,0,0,.2,1.153.88.88,0,0,0,.79.563c.69-.012,1.04-.624,1.04-1.837a3.435,3.435,0,0,0-.13-.968,1.191,1.191,0,0,0-.35-.557.763.763,0,0,0-.52-.213.881.881,0,0,0-.84.622A3.2,3.2,0,0,0,1281.14,849.93Zm4.42.045a4.777,4.777,0,0,0,.11.913.97.97,0,0,0,.48.661.853.853,0,0,0,.41.1c.51-.006.8-.329.87-.962h.7a2.309,2.309,0,0,1-.24.875,1.375,1.375,0,0,1-.59.557,1.646,1.646,0,0,1-.73.16,1.464,1.464,0,0,1-1.3-.652,3.113,3.113,0,0,1-.41-1.694,4.22,4.22,0,0,1,.19-1.333,1.63,1.63,0,0,1,.61-.874,1.412,1.412,0,0,1,.9-.282q1.485.014,1.59,1.882l.02.652Zm0-.615h1.9a1.752,1.752,0,0,0-.2-.942.793.793,0,0,0-.71-.347q-.75,0-.93.92Zm8.7-.789h1.91v3.323a6.352,6.352,0,0,1-1.84.382,2.8,2.8,0,0,1-1.29-.279,2.2,2.2,0,0,1-1.05-1.249,4.715,4.715,0,0,1-.29-1.807,4.373,4.373,0,0,1,.61-2.487,2.164,2.164,0,0,1,1.9-1.008,2.8,2.8,0,0,1,.86.144,1.6,1.6,0,0,1,1.1,1.553v.114h-.72l-.06-.26a.977.977,0,0,0-.2-.392,1.023,1.023,0,0,0-.43-.307,1.432,1.432,0,0,0-.52-.093,1.685,1.685,0,0,0-.75.174,2.07,2.07,0,0,0-1.03,1.81c-.02.226-.04.46-.04.695a5.1,5.1,0,0,0,.18,1.4,1.621,1.621,0,0,0,1.75,1.232,2.85,2.85,0,0,0,.92-.15l.18-.065v-1.969h-1.19Zm3.69,1.4a4.08,4.08,0,0,0,.11.913.97.97,0,0,0,.48.661.827.827,0,0,0,.41.1c.5-.006.79-.329.87-.962h.7a2.479,2.479,0,0,1-.25.875,1.354,1.354,0,0,1-.58.557,1.688,1.688,0,0,1-.74.16,1.436,1.436,0,0,1-1.29-.652,3.027,3.027,0,0,1-.41-1.694,4.54,4.54,0,0,1,.18-1.333,1.685,1.685,0,0,1,.61-.874,1.46,1.46,0,0,1,.91-.282q1.485.014,1.59,1.882l.01.652Zm0-.615h1.9a1.852,1.852,0,0,0-.2-.942.794.794,0,0,0-.71-.347q-.765,0-.93.92Zm3.44.488a3.186,3.186,0,0,1,.23-1.314,1.646,1.646,0,0,1,.78-.914,1.689,1.689,0,0,1,.78-.179,1.776,1.776,0,0,1,.75.168,1.683,1.683,0,0,1,.83,1.056,3.688,3.688,0,0,1,.18,1.18,3.364,3.364,0,0,1-.24,1.338,1.65,1.65,0,0,1-.79.917,1.731,1.731,0,0,1-.77.176,1.509,1.509,0,0,1-1.32-.7A2.992,2.992,0,0,1,1301.39,849.848Zm.7.044a3.222,3.222,0,0,0,.13.966.935.935,0,0,0,.94.788.892.892,0,0,0,.85-.582,2.916,2.916,0,0,0,.23-1.238,3.372,3.372,0,0,0-.14-.977.934.934,0,0,0-.92-.778.97.97,0,0,0-.86.585A2.782,2.782,0,0,0,1302.09,849.892Zm4.57,2.612v.154q.06.7.84.7c.59,0,.92-.362.98-1.085.01-.186.02-.363.02-.527v-.457l-.11.206a1.21,1.21,0,0,1-1.08.573,1.23,1.23,0,0,1-1.07-.512,1.971,1.971,0,0,1-.31-.624,3.828,3.828,0,0,1-.16-1.149,3.633,3.633,0,0,1,.16-1.111,1.81,1.81,0,0,1,.58-.908,1.337,1.337,0,0,1,.9-.326,1.139,1.139,0,0,1,1.01.563l.08.148v-.582h.67v4.2a6.337,6.337,0,0,1-.05.893,1.678,1.678,0,0,1-.32.791,1.545,1.545,0,0,1-1.32.542c-.94.012-1.44-.382-1.51-1.184l-.01-.3Zm-.19-2.7q0,1.648.99,1.64,1.035,0,1.05-1.721a2.355,2.355,0,0,0-.22-1.134.859.859,0,0,0-.8-.516Q1306.47,848.055,1306.47,849.8Zm3.89-2.232h.67v.5l.14-.2a1.1,1.1,0,0,1,.37-.3,1.121,1.121,0,0,1,.49-.121h.21v.779l-.23-.021a.847.847,0,0,0-.82.544,3.093,3.093,0,0,0-.16,1.187v2.216h-.67Zm2.63,1.207a3.108,3.108,0,0,1,.11-.619,1,1,0,0,1,.35-.454,1.743,1.743,0,0,1,1-.263,1.618,1.618,0,0,1,1.04.292,1.432,1.432,0,0,1,.43,1.17v1.784l.01.351.01.46a2.367,2.367,0,0,0,.04.443l.05.205h-.65a3,3,0,0,1-.11-.629l-.05.1a1.028,1.028,0,0,1-.23.3,1.192,1.192,0,0,1-.87.351,1.377,1.377,0,0,1-.66-.16.839.839,0,0,1-.36-.3,1.145,1.145,0,0,1-.21-.388,1.516,1.516,0,0,1-.08-.567,1.573,1.573,0,0,1,.07-.534,1.456,1.456,0,0,1,.26-.472,1.089,1.089,0,0,1,.42-.356,2.937,2.937,0,0,1,1.19-.223h.5a2.188,2.188,0,0,0-.11-.9.73.73,0,0,0-.68-.3.842.842,0,0,0-.52.141.78.78,0,0,0-.25.565Zm2.26,1.118h-.43a2.3,2.3,0,0,0-.84.136.784.784,0,0,0-.48.8.8.8,0,0,0,.24.613.756.756,0,0,0,.54.2.82.82,0,0,0,.87-.689A4.407,4.407,0,0,0,1315.25,849.9Zm2.23-2.325v-.508a3.147,3.147,0,0,1,.1-.987.814.814,0,0,1,.66-.525,2.046,2.046,0,0,1,.41-.038l.24.013.12.019v.629l-.26-.029a.984.984,0,0,0-.26.029.42.42,0,0,0-.3.339,2.616,2.616,0,0,0-.04.537v.521h.86v.616h-.86v3.96h-.67v-3.96h-.71v-.616Zm3.13,4.576h-.67V847.57h.67Zm.03-5.7h-.74v-.875h.74Zm1.2,2.334a3.108,3.108,0,0,1,.11-.619.96.96,0,0,1,.36-.454,1.686,1.686,0,0,1,.99-.263,1.618,1.618,0,0,1,1.04.292,1.432,1.432,0,0,1,.43,1.17v1.784l.01.351.01.46a2.379,2.379,0,0,0,.04.443l.05.205h-.65a3.01,3.01,0,0,1-.11-.629l-.05.1a1.228,1.228,0,0,1-.23.3,1.192,1.192,0,0,1-.87.351,1.376,1.376,0,0,1-.66-.16.839.839,0,0,1-.36-.3,1.147,1.147,0,0,1-.21-.388,1.518,1.518,0,0,1-.08-.567,1.577,1.577,0,0,1,.07-.534,1.458,1.458,0,0,1,.26-.472,1.089,1.089,0,0,1,.42-.356,2.937,2.937,0,0,1,1.19-.223h.5a2.188,2.188,0,0,0-.11-.9.73.73,0,0,0-.68-.3.842.842,0,0,0-.52.141.779.779,0,0,0-.25.565Zm2.26,1.118h-.43a2.3,2.3,0,0,0-.84.136.784.784,0,0,0-.48.8.8.8,0,0,0,.24.613.756.756,0,0,0,.54.2.827.827,0,0,0,.87-.689A4.407,4.407,0,0,0,1324.1,849.9Zm4.92.08a4.787,4.787,0,0,0,.11.913,1.032,1.032,0,0,0,.48.661.853.853,0,0,0,.41.1c.51-.006.8-.329.87-.962h.7a2.307,2.307,0,0,1-.24.875,1.375,1.375,0,0,1-.59.557,1.645,1.645,0,0,1-.73.16,1.436,1.436,0,0,1-1.29-.652,2.947,2.947,0,0,1-.41-1.694,4.23,4.23,0,0,1,.18-1.333,1.63,1.63,0,0,1,.61-.874,1.412,1.412,0,0,1,.9-.282c.99.009,1.53.638,1.59,1.882l.01.652Zm0-.615h1.91a1.964,1.964,0,0,0-.2-.942.823.823,0,0,0-.72-.347q-.75,0-.93.92Zm6.34-3.783h3.2v.759h-2.48v2.05h2.36v.759h-2.36v2.241h2.55v.76h-3.27Zm4.78,5.19c.03.59.3.883.8.879.56-.006.84-.257.85-.748a.511.511,0,0,0-.27-.5,2.768,2.768,0,0,0-.4-.163l-.7-.238a1.329,1.329,0,0,1-.64-.394,1.258,1.258,0,0,1-.24-.808,1.359,1.359,0,0,1,.19-.725,1.147,1.147,0,0,1,.49-.462,1.647,1.647,0,0,1,.74-.168,1.6,1.6,0,0,1,.99.273,1.14,1.14,0,0,1,.36.456,2.148,2.148,0,0,1,.09.632h-.7c-.03-.488-.26-.731-.7-.731a.994.994,0,0,0-.5.125.552.552,0,0,0-.26.506.5.5,0,0,0,.29.508q.285.121.87.3a3.564,3.564,0,0,1,.48.2,1.135,1.135,0,0,1,.61,1.1,1.361,1.361,0,0,1-1.48,1.463,1.509,1.509,0,0,1-1.27-.471,1.807,1.807,0,0,1-.3-1.038Zm2.94-3.2h.75v-.856l.67-.351v1.207h.92v.616h-.92v2.768l.02.292.02.155a.34.34,0,0,0,.39.245,2.2,2.2,0,0,0,.49-.071v.629a4.033,4.033,0,0,1-.68.072.809.809,0,0,1-.9-.875l-.01-.478v-2.737h-.75Zm3.17,1.207a2.632,2.632,0,0,1,.1-.619.961.961,0,0,1,.36-.454,1.687,1.687,0,0,1,.99-.263,1.618,1.618,0,0,1,1.04.292,1.4,1.4,0,0,1,.43,1.17v1.784l.01.351.01.46a3.713,3.713,0,0,0,.04.443l.05.205h-.65a3,3,0,0,1-.11-.629l-.05.1a1.231,1.231,0,0,1-.23.3,1.192,1.192,0,0,1-.87.351,1.406,1.406,0,0,1-.66-.16.839.839,0,0,1-.36-.3.98.98,0,0,1-.2-.388,1.341,1.341,0,0,1-.09-.567,1.364,1.364,0,0,1,.08-.534,1.266,1.266,0,0,1,.25-.472,1.089,1.089,0,0,1,.42-.356,2.937,2.937,0,0,1,1.19-.223h.5a2.025,2.025,0,0,0-.11-.9.712.712,0,0,0-.67-.3.854.854,0,0,0-.53.141.78.78,0,0,0-.25.565Zm2.25,1.118h-.43a2.34,2.34,0,0,0-.84.136.777.777,0,0,0-.47.8.794.794,0,0,0,.23.613.756.756,0,0,0,.54.2.82.82,0,0,0,.87-.689A4.407,4.407,0,0,0,1348.5,849.9Zm1.42-2.325h.75v-.856l.67-.351v1.207h.92v.616h-.92v2.768l.01.292.03.155c.04.167.17.252.39.245a2.281,2.281,0,0,0,.49-.071v.629a4.137,4.137,0,0,1-.68.072.816.816,0,0,1-.91-.875v-3.215h-.75Zm3.93,4.576h-.67V847.57h.67Zm-.03-6.547h.93l-.98,1.4h-.64Zm1.72,5.168q.06.885.81.879c.56-.006.84-.257.85-.748a.519.519,0,0,0-.28-.5,3.167,3.167,0,0,0-.39-.163l-.7-.238a1.369,1.369,0,0,1-.65-.394,1.318,1.318,0,0,1-.23-.808,1.275,1.275,0,0,1,.19-.725,1.184,1.184,0,0,1,.48-.462,1.678,1.678,0,0,1,.74-.168,1.609,1.609,0,0,1,1,.273,1.032,1.032,0,0,1,.35.456,2.077,2.077,0,0,1,.1.632h-.7c-.03-.488-.27-.731-.7-.731a.965.965,0,0,0-.5.125.552.552,0,0,0-.26.506.5.5,0,0,0,.29.508c.19.081.48.182.86.3a3.227,3.227,0,0,1,.49.2,1.151,1.151,0,0,1,.61,1.1,1.362,1.362,0,0,1-1.49,1.463,1.521,1.521,0,0,1-1.27-.471,1.807,1.807,0,0,1-.3-1.038Zm2.95-3.2h.75v-.856l.67-.351v1.207h.92v.616h-.92v2.768l.01.292.03.155c.04.167.17.252.39.245a2.281,2.281,0,0,0,.49-.071v.629a4.135,4.135,0,0,1-.68.072.816.816,0,0,1-.91-.875v-3.215h-.75Zm3.94,4.576h-.67V847.57h.67Zm.04-5.7h-.74v-.875h.74Zm3.53,2.582c-.07-.63-.35-.946-.84-.954a.925.925,0,0,0-.42.1.868.868,0,0,0-.47.607,3.407,3.407,0,0,0-.13.971,3.606,3.606,0,0,0,.16,1.277.831.831,0,0,0,.84.624.763.763,0,0,0,.83-.624,2.989,2.989,0,0,0,.07-.41h.7a4.03,4.03,0,0,1-.13.712,1.286,1.286,0,0,1-.36.561,1.579,1.579,0,0,1-1.11.391,1.445,1.445,0,0,1-1.29-.658,3.971,3.971,0,0,1,0-3.475,1.585,1.585,0,0,1,1.36-.7,1.371,1.371,0,0,1,1.17.522,1.524,1.524,0,0,1,.27.68l.05.382" fill="#004182"/>
    <path id="Caminho_168" data-name="Caminho 168" d="M1367.79,848.775a3.29,3.29,0,0,1,.1-.618,1.018,1.018,0,0,1,.36-.454,1.708,1.708,0,0,1,.99-.263,1.669,1.669,0,0,1,1.05.292,1.463,1.463,0,0,1,.43,1.17v2.135l.01.46a3.734,3.734,0,0,0,.04.443l.05.2h-.65a2.421,2.421,0,0,1-.1-.628l-.06.1a1.044,1.044,0,0,1-.23.3,1.192,1.192,0,0,1-.87.351,1.377,1.377,0,0,1-.66-.16.974.974,0,0,1-.36-.3,1.132,1.132,0,0,1-.2-.388,1.758,1.758,0,0,1-.09-.568,1.585,1.585,0,0,1,.08-.534,1.432,1.432,0,0,1,.25-.471,1.09,1.09,0,0,1,.42-.356,2.938,2.938,0,0,1,1.19-.223h.51a2.136,2.136,0,0,0-.12-.9.712.712,0,0,0-.67-.3.854.854,0,0,0-.53.141.778.778,0,0,0-.24.564Zm2.26,1.119h-.44a2.34,2.34,0,0,0-.84.136.777.777,0,0,0-.47.8.794.794,0,0,0,.23.613.756.756,0,0,0,.54.2.814.814,0,0,0,.87-.689A4.34,4.34,0,0,0,1370.05,849.894Z" fill="#004182"/>
    <path id="Caminho_169" data-name="Caminho 169" d="M1234.13,823.671a5.5,5.5,0,1,1-.35,1.932A5.553,5.553,0,0,1,1234.13,823.671Z" fill="#7492c1" fill-rule="evenodd"/>
    <path id="Caminho_170" data-name="Caminho 170" d="M1261.54,826.614l-5.03,13.927c-.35.962-.77,1.006-1.58,1.006h-20.4s-.71,0,0-1.006c6.35-8.935,14.06-15.243,26.68-14.92C1261.21,825.621,1261.9,825.613,1261.54,826.614Z" fill="#7492c1" fill-rule="evenodd"/>
    <path id="Caminho_171" data-name="Caminho 171" d="M1216.86,824.639l5.04-13.929c.34-.96.76-1.007,1.57-1.007l20.49.006s.71,0,0,1c-6.35,8.944-14.14,15.246-26.77,14.923C1217.19,825.633,1216.5,825.637,1216.86,824.639Z" fill="#7492c1" fill-rule="evenodd"/>
    <path id="Caminho_172" data-name="Caminho 172" d="M1215.63,839.543c-1.57-2-2.21-5.006-.84-8.953l1.04-2.986a1.193,1.193,0,0,1,1.38-.993h4.69c6.34,0,9.48,0,11.09,1.988s2.43,4.864.96,8.953l-1.07,2.986c-.18.493-.31,1.006-1.53,1.006h-4.72C1221.48,841.544,1217.21,841.544,1215.63,839.543Z" fill="#7492c1" fill-rule="evenodd"/>
    <path id="Caminho_173" data-name="Caminho 173" d="M1262.87,811.675c1.58,2,2.22,5,.84,8.953l-1.04,2.984c-.19.556-.35.995-1.37.995h-4.7c-6.33,0-9.48,0-11.08-1.991s-2.43-4.864-.97-8.955l1.08-2.981c.17-.493.3-1.009,1.52-1.009h4.72C1257.02,809.671,1261.3,809.671,1262.87,811.675Z" fill="#7492c1" fill-rule="evenodd"/>
    <path id="Caminho_174" data-name="Caminho 174" d="M1264.42,841.529l11.46-31.867h8.93l-11.12,31.867Zm14.76,0,11.46-31.867h11.32a57.374,57.374,0,0,1,8.93.7q3.9.664,3.31,4.712c-.01.03-.01.065-.02.11s-.01.08-.02.108a1.31,1.31,0,0,1-.02.133c0,.031-.01.075-.01.134a9.748,9.748,0,0,1-3.05,5.964,12.859,12.859,0,0,1-6.49,3.059q3.72,1.057,4.64,2.662a6.007,6.007,0,0,1,.58,3.94,10.205,10.205,0,0,1-4.15,6.843,16.862,16.862,0,0,1-7.44,3.37,9.648,9.648,0,0,1-1.12.107c-.37.014-.72.022-1.07.022Zm11.23-6.6h5.49a3.744,3.744,0,0,0,2.56-1.013,5.243,5.243,0,0,0,1.71-2.333,2.358,2.358,0,0,0,.12-.351,2.194,2.194,0,0,0,.07-.353,1.951,1.951,0,0,0-.55-1.736,3.61,3.61,0,0,0-2.62-.727l-4.43-.043Zm4.71-13.51h5.14a3.73,3.73,0,0,0,2.66-.926,4.634,4.634,0,0,0,1.44-2.112,1.527,1.527,0,0,1,.05-.243.874.874,0,0,0,.05-.2,2.325,2.325,0,0,0-.51-1.87,3.027,3.027,0,0,0-2.45-.816l-4.44-.044Zm18.35,7.966a23.856,23.856,0,0,1,8.29-14.833A24.2,24.2,0,0,1,1337.72,809c.67,0,1.38.017,2.13.043s1.51.087,2.28.178a11.6,11.6,0,0,1,5.11,1.848q2.25,1.494,1.69,5.282c-.05.382-.14.8-.24,1.255a11.944,11.944,0,0,1-.45,1.428l-8.57-.043a3.846,3.846,0,0,0-.87-2.752c-.6-.658-1.84-.99-3.73-.99q-3.825,0-7.32,3.651a18.434,18.434,0,0,0-4.66,8.1,2.082,2.082,0,0,0-.11.42c-.02.16-.04.329-.07.506a10.632,10.632,0,0,0-.1,1.3,10.873,10.873,0,0,0,.06,1.387,7.349,7.349,0,0,0,1.53,3.719,5.03,5.03,0,0,0,4.26,1.691c.49,0,1.18-.043,2.06-.13a11.776,11.776,0,0,0,3.23-.925l1.76-5.237h-6.14l2.31-6.56h15.1l-5.95,17.3c-3.16.556-6.03.988-8.63,1.3a58.468,58.468,0,0,1-6.73.463h-.87q-7.245.042-9.69-3.587-2.46-3.635-1.65-9.221Zm32.9,12.146,11.16-31.867h24.34l-2.3,6.207h-15.06l-2.31,6.25h14.07l-2.31,6.6h-14.07l-2.29,6.206h15.46l-2.35,6.6" fill="#004182"/>
  </g>
</svg>
